<?xml version="1.0" encoding="utf-8"?>
<!-- Generator: Adobe Illustrator 26.5.1, SVG Export Plug-In . SVG Version: 6.00 Build 0)  -->
<svg version="1.1" id="Layer_1" xmlns="http://www.w3.org/2000/svg" xmlns:xlink="http://www.w3.org/1999/xlink" x="0px" y="0px"
	 viewBox="0 0 61.5 23.2" style="enable-background:new 0 0 61.5 23.2;" xml:space="preserve">
<style type="text/css">
	.st0{fill:#FFFFFF;}
</style>
<g>
	<path class="st0" d="M0.3,0.9h9.4c5.6,0,9.8,3.5,9.8,10.7c0,6.3-3.2,11-9.8,11H0.3V0.9z M5.1,18.5h4.2c2.7,0,5.4-1.7,5.4-6.5
		c0-4.3-1.5-7.2-6.3-7.2H5.1V18.5z"/>
	<path class="st0" d="M31.4,13.3h6.1v3.2h-6.1v6.1h-3.2v-6.1h-6.1v-3.2h6.1V7.2h3.2V13.3z"/>
	<path class="st0" d="M55.4,8.1c-0.3-2.1-2.3-3.8-4.7-3.8c-4.2,0-5.9,3.6-5.9,7.5c0,3.6,1.6,7.3,5.9,7.3c2.9,0,4.5-2,4.9-4.8h4.6
		c-0.5,5.4-4.2,8.9-9.5,8.9c-6.7,0-10.7-5-10.7-11.3c0-6.5,3.9-11.4,10.7-11.4c4.7,0,8.8,2.8,9.4,7.8C60.2,8.1,55.4,8.1,55.4,8.1z"
		/>
</g>
</svg>
