<?xml version="1.0" encoding="utf-8"?>
<svg version="1.1" id="Layer_1" xmlns="http://www.w3.org/2000/svg" xmlns:xlink="http://www.w3.org/1999/xlink" x="0px" y="0px"
	 viewBox="0 0 85 28.3" style="enable-background:new 0 0 85 28.3;" xml:space="preserve">
<g>
	<path d="M2.1,3.9h9.3c5.6,0,9.7,3.5,9.7,10.6c0,6.2-3.2,10.9-9.7,10.9H2.1V3.9z M6.9,21.4h4.2c2.7,0,5.4-1.7,5.4-6.4
		c0-4.3-1.5-7.1-6.2-7.1H6.9V21.4z"/>
	<path d="M33,16.2h6v3.2h-6v6h-3.2v-6h-6v-3.2h6v-6H33V16.2z"/>
	<path d="M56.8,11.1c-0.3-2.1-2.3-3.8-4.7-3.8c-4.2,0-5.8,3.6-5.8,7.4c0,3.6,1.6,7.2,5.8,7.2c2.9,0,4.5-2,4.9-4.8h4.6
		c-0.5,5.4-4.2,8.8-9.4,8.8c-6.6,0-10.6-5-10.6-11.2c0-6.4,3.9-11.3,10.6-11.3c4.7,0,8.7,2.8,9.3,7.7H56.8z"/>
</g>
<g>
	<path d="M73.4,25.7h-1.7L82.2,2.6h1.5L73.4,25.7z"/>
</g>
</svg>
