<?xml version="1.0" encoding="utf-8"?>
<!-- Generator: Adobe Illustrator 26.5.1, SVG Export Plug-In . SVG Version: 6.00 Build 0)  -->
<svg version="1.1" xmlns="http://www.w3.org/2000/svg" xmlns:xlink="http://www.w3.org/1999/xlink" 
	 viewBox="0 0 20 20">
<g>
	<defs>
		<rect id="SVGID_1_" x="0.2" y="0.2" width="19.7" height="19.7"/>
	</defs>
	<clipPath id="SVGID_00000119804511004111133780000003862832043631291289_">
		<use xlink:href="#SVGID_1_"  style="overflow:visible;"/>
	</clipPath>
	
		<circle style="clip-path:url(#SVGID_00000119804511004111133780000003862832043631291289_);fill:none;stroke:#ED1C24;stroke-width:1.0009;" cx="10" cy="10" r="9.3"/>
	<path style="clip-path:url(#SVGID_00000119804511004111133780000003862832043631291289_);fill:#ED1C24;" d="M10.8,5.4
		C10,5.8,9.1,6.1,8.2,6.2c0,0,0.1,0,0.1,0.1c0,0,0.1,0.1,0.2,0.1c0.4,0.2,0.8,0.3,1.3,0.4c0.5,0,1.1,0,1.8-0.2l-5.3,9.2L6.6,16
		l5.3-9.2c0.2,0.7,0.4,1.2,0.7,1.6c0.3,0.4,0.6,0.8,1,1c0.1,0,0.1,0.1,0.2,0.1c0,0,0.1,0,0.1,0.1c-0.3-0.9-0.6-1.8-0.7-2.7
		c-0.1-0.9-0.1-1.8,0-2.8C12.5,4.6,11.7,5.1,10.8,5.4"/>
</g>
</svg>
