<?xml version="1.0" encoding="utf-8"?>
<!-- Generator: Adobe Illustrator 26.5.1, SVG Export Plug-In . SVG Version: 6.00 Build 0)  -->
<svg version="1.1" id="Layer_1" xmlns="http://www.w3.org/2000/svg" xmlns:xlink="http://www.w3.org/1999/xlink" x="0px" y="0px"
	 viewBox="0 0 20 20" style="enable-background:new 0 0 20 20;" xml:space="preserve">
<style type="text/css">
	.st0{fill:#ED1C24;}
	.st1{fill:#FFFFFF;stroke:#FFFFFF;stroke-width:0.75;stroke-miterlimit:10;}
</style>
<g>
	<path class="st0" d="M10,0.2c-5.4,0-9.8,4.4-9.8,9.8s4.4,9.8,9.8,9.8c5.4,0,9.8-4.4,9.8-9.8S15.4,0.2,10,0.2z"/>
</g>
<path class="st1" d="M13.2,4c-0.8,0.6-1.6,1.1-2.4,1.4C10,5.8,9.1,6.1,8.2,6.2c0,0,0.1,0,0.1,0.1c0,0,0.1,0.1,0.2,0.1
	c0.4,0.2,0.8,0.3,1.3,0.4c0.5,0,1.1,0,1.8-0.2l-5.3,9.2L6.6,16l5.3-9.2c0.2,0.7,0.4,1.2,0.7,1.6c0.3,0.4,0.6,0.8,1,1
	c0.1,0,0.1,0.1,0.2,0.1c0,0,0.1,0,0.1,0.1c-0.3-0.9-0.6-1.8-0.7-2.7C13.1,5.9,13.1,5,13.2,4z"/>
</svg>
