<?xml version="1.0" encoding="utf-8"?>
<!-- Generator: Adobe Illustrator 26.5.2, SVG Export Plug-In . SVG Version: 6.00 Build 0)  -->
<svg version="1.1" id="Layer_1" xmlns="http://www.w3.org/2000/svg" xmlns:xlink="http://www.w3.org/1999/xlink" x="0px" y="0px"
	 viewBox="0 0 10.8 10.8" style="enable-background:new 0 0 10.8 10.8;" xml:space="preserve">
<style type="text/css">
	.st0{fill:#FFFFFF;}
</style>
<g>
	<path class="st0" d="M7.7,1.1C6.8,1.2,5.9,1.3,4.9,1.2c0,0,0,0.1,0.1,0.1c0,0,0.1,0.1,0.1,0.1c0.3,0.3,0.7,0.6,1.2,0.7
		c0.5,0.2,1.1,0.2,1.8,0.2L0.5,9.9l0.3,0.3l7.6-7.6c0,0.7,0.1,1.3,0.3,1.8c0.2,0.5,0.4,0.9,0.7,1.2c0,0,0.1,0.1,0.1,0.1
		s0.1,0.1,0.1,0.1C9.5,4.9,9.5,4,9.7,3.1c0.1-0.9,0.4-1.8,0.8-2.7C9.5,0.7,8.6,1,7.7,1.1"/>
</g>
</svg>
